<?xml version="1.0" encoding="utf-8"?>
<!-- Generator: Adobe Illustrator 24.3.0, SVG Export Plug-In . SVG Version: 6.00 Build 0)  -->
<svg version="1.1" xmlns="http://www.w3.org/2000/svg" xmlns:xlink="http://www.w3.org/1999/xlink" x="0px" y="0px"
	 viewBox="0 0 382.7 767.2" style="enable-background:new 0 0 382.7 767.2;" xml:space="preserve">
<style type="text/css">
	.st0{fill:#3F3D56;}
	.st1{fill:#FFFFFF;}
</style>
<g id="Phone">
	<path class="st0" d="M314.5,761.3l-254.7-1.4C28,759.7,2.3,733.8,2.5,702L5.9,57.3C6.1,25.5,32-0.1,63.8,0l254.7,1.4
		c31.8,0.2,57.4,26.1,57.3,57.9L372.4,704C372.2,735.8,346.3,761.4,314.5,761.3z"/>
	<!-- <path class="st1" d="M315.5,19.2l-28.4-0.2c-5.3,0-9.6,4.2-9.6,9.5C277.5,39.3,268.8,48,258,48l-138.7-0.7
		c-10.8-0.1-19.5-8.8-19.4-19.6c0-5.3-4.2-9.6-9.5-9.6l-25-0.1c-24.1-0.1-43.8,19.3-43.9,43.5l-3.4,640.1
		c-0.1,24.1,19.3,43.8,43.5,43.9l250.1,1.3c24.1,0.1,43.8-19.3,43.9-43.5L359,63.1C359.1,39,339.7,19.4,315.5,19.2z"/>
	<path class="st1" d="M223.7,31.6l-78.2-0.4c-1.5,0-2.8-1.3-2.8-2.8c0-1.5,1.3-2.8,2.8-2.8l78.2,0.4c1.5,0,2.8,1.3,2.8,2.8
		C226.5,30.3,225.2,31.6,223.7,31.6z"/>
	<circle class="st1" cx="236" cy="28.9" r="2.2"/> -->
	<path class="st0" d="M377,255.9c-2.8,0-5-2.3-5-5.1l0.5-98.3c0-2.8,2.3-5,5.1-5c2.8,0,5,2.3,5,5.1l-0.5,98.3
		C382,253.7,379.8,255.9,377,255.9z"/>
	<path class="st0" d="M5.2,181.3c-2.8,0-5-2.3-5-5.1l0.1-22.4c0-2.8,2.3-5,5.1-5c2.8,0,5,2.3,5,5.1l-0.1,22.4
		C10.3,179.1,8,181.3,5.2,181.3z"/>
	<path class="st0" d="M5,222.6c-2.8,0-5-2.3-5-5.1l0.1-22.4c0-2.8,2.3-5,5.1-5c2.8,0,5,2.3,5,5.1l-0.1,22.4
		C10,220.4,7.8,222.7,5,222.6z"/>
</g>
</svg>
