<svg xmlns="http://www.w3.org/2000/svg" version="1.1" xmlns:xlink="http://www.w3.org/1999/xlink" xmlns:svgjs="http://svgjs.com/svgjs" width="512" height="512" x="0" y="0" viewBox="0 0 496 496" style="enable-background:new 0 0 512 512" xml:space="preserve" class=""><g><path d="M200 448h96v16h-96z" fill="#ffffff" data-original="#000000" class="" opacity="1"></path><path d="M456 224c22.056 0 40-17.944 40-40v-64c0-22.056-17.944-40-40-40h-56V40c0-22.056-17.944-40-40-40H136c-22.056 0-40 17.944-40 40v128H40c-22.056 0-40 17.944-40 40v64c0 22.056 17.944 40 40 40h56v144c0 22.056 17.944 40 40 40h224c22.056 0 40-17.944 40-40v-56h56c22.056 0 40-17.944 40-40v-64c0-22.056-17.944-40-40-40h-56v-32h56zM112 40c0-13.232 10.768-24 24-24h224c13.232 0 24 10.768 24 24v8H112v-8zM40 296c-13.232 0-24-10.768-24-24v-64c0-13.232 10.768-24 24-24h112c13.232 0 24 10.768 24 24v66.664L192 296H40zm344 160c0 13.232-10.768 24-24 24H136c-13.232 0-24-10.768-24-24v-24h272v24zm0-40H112V312h112l-32-42.664V208c0-22.056-17.944-40-40-40h-40V64h272v16h-40c-22.056 0-40 17.944-40 40v61.336L272 224h112v32h-40c-22.056 0-40 17.944-40 40v61.336L272 400h112v16zm72-144c13.232 0 24 10.768 24 24v64c0 13.232-10.768 24-24 24H304l16-21.336V296c0-13.232 10.768-24 24-24h112zm-152-64 16-21.336V120c0-13.232 10.768-24 24-24h112c13.232 0 24 10.768 24 24v64c0 13.232-10.768 24-24 24H304z" fill="#ffffff" data-original="#000000" class="" opacity="1"></path><path d="M336 112h128v16H336zM336 144h128v16H336zM448 176h16v16h-16zM336 176h96v16h-96zM336 288h128v16H336zM336 320h128v16H336zM448 352h16v16h-16zM336 352h96v16h-96zM32 200h128v16H32zM32 232h128v16H32zM32 264h96v16H32zM144 264h16v16h-16z" fill="#ffffff" data-original="#000000" class="" opacity="1"></path></g></svg>