<svg xmlns="http://www.w3.org/2000/svg" version="1.1" xmlns:xlink="http://www.w3.org/1999/xlink" xmlns:svgjs="http://svgjs.com/svgjs" width="512" height="512" x="0" y="0" viewBox="0 0 64 64" style="enable-background:new 0 0 512 512" xml:space="preserve" class=""><g><path d="M60.95 31.52a5.099 5.099 0 0 1-.97 2.91c-2.38 3.37-6.25 8.73-8.93 12.44a10.024 10.024 0 0 1-8.1 4.13h-17.9l-.59.59-12-12 2.83-2.83A5.875 5.875 0 0 1 18 35.21a5.667 5.667 0 0 1 1.54-.21h21.51a3 3 0 0 1-.05 6H30a1 1 0 0 0 0 2h11a5.002 5.002 0 0 0 5-5 4.829 4.829 0 0 0-.14-1.15c1.42-1.33 7.18-6.8 8.26-7.87a4.255 4.255 0 0 1 1.88-1.1 3.891 3.891 0 0 1 3.76.89 3.671 3.671 0 0 1 1.19 2.75ZM3.05 45l15.99 16 6.01-6-16-16ZM37 8a.99.99 0 0 1 .71.29L41 11.58V3h-8v8.58l3.29-3.29A.99.99 0 0 1 37 8ZM19.54 33a7.731 7.731 0 0 0-1.54.16V3h13v11a.987.987 0 0 0 .62.92 1.002 1.002 0 0 0 1.09-.21l4.29-4.3 4.29 4.3A1.007 1.007 0 0 0 42 15a.839.839 0 0 0 .38-.08A.987.987 0 0 0 43 14V3h13v22.83a4.537 4.537 0 0 0-.53.12 6.38 6.38 0 0 0-2.76 1.61c-1.07 1.06-6.31 6.04-7.47 7.14a5.963 5.963 0 0 0-4.19-1.7ZM22 23a1.003 1.003 0 0 0 1 1h5a1 1 0 0 0 0-2h-5a1.003 1.003 0 0 0-1 1Zm0 4a1.003 1.003 0 0 0 1 1h5a1 1 0 0 0 0-2h-5a1.003 1.003 0 0 0-1 1Z" data-name="22-Romantic copy 6" fill="#ffffff" data-original="#000000" opacity="1" class=""></path></g></svg>