<?xml version="1.0" standalone="no"?>
<!DOCTYPE svg PUBLIC "-//W3C//DTD SVG 20010904//EN"
 "http://www.w3.org/TR/2001/REC-SVG-20010904/DTD/svg10.dtd">
<svg version="1.0" xmlns="http://www.w3.org/2000/svg"
 width="1500.000000pt" height="1500.000000pt" viewBox="0 0 1500.000000 1500.000000"
 preserveAspectRatio="xMidYMid meet">

<g transform="translate(0.000000,1500.000000) scale(0.100000,-0.100000)"
fill="#ffffff" stroke="none">
<path d="M7140 14284 c-74 -5 -297 -24 -415 -35 -60 -5 -168 -21 -240 -34 -71
-13 -164 -29 -205 -35 -432 -67 -1036 -252 -1545 -473 -66 -29 -366 -179 -472
-237 -41 -23 -165 -93 -184 -105 -9 -5 -43 -24 -76 -42 -32 -17 -113 -67 -179
-111 -65 -43 -139 -91 -163 -107 -25 -15 -49 -32 -55 -37 -22 -18 -219 -164
-256 -189 -21 -14 -53 -38 -72 -55 -19 -16 -54 -45 -78 -64 -25 -19 -72 -60
-105 -91 -33 -30 -103 -92 -155 -136 -109 -93 -441 -429 -545 -552 -137 -162
-261 -312 -305 -371 -210 -283 -328 -463 -480 -735 -41 -71 -80 -141 -89 -155
-31 -51 -224 -447 -266 -544 -23 -56 -66 -162 -95 -236 -28 -74 -56 -143 -61
-152 -5 -10 -9 -23 -9 -30 0 -7 -31 -109 -69 -228 -70 -220 -87 -277 -140
-505 -33 -137 -42 -189 -90 -480 -38 -235 -48 -315 -50 -399 -1 -39 -4 -73 -7
-77 -3 -5 -10 -111 -17 -236 -14 -249 -7 -762 12 -880 5 -37 15 -122 21 -188
13 -143 28 -263 40 -325 5 -25 25 -130 45 -235 38 -202 41 -213 74 -345 12
-47 26 -102 32 -122 34 -139 80 -287 133 -438 24 -69 50 -141 56 -160 28 -81
56 -150 90 -225 21 -44 45 -104 55 -134 28 -85 263 -542 375 -726 56 -94 110
-184 120 -202 10 -17 44 -69 76 -115 32 -45 77 -112 102 -148 87 -128 158
-224 198 -269 22 -25 55 -66 72 -91 28 -42 59 -79 215 -254 49 -54 275 -291
378 -395 29 -29 201 -185 239 -216 20 -16 88 -73 151 -125 63 -53 146 -118
184 -145 64 -44 191 -139 223 -166 7 -6 42 -28 76 -49 35 -21 110 -69 167
-106 156 -101 654 -384 676 -384 3 0 50 -22 106 -49 121 -58 232 -105 382
-161 61 -23 148 -56 195 -75 205 -80 758 -235 839 -235 11 0 30 -4 43 -9 13
-5 46 -13 73 -19 28 -6 82 -17 120 -25 112 -24 394 -63 535 -73 30 -3 96 -9
145 -15 134 -16 735 -22 920 -10 193 13 413 35 555 56 58 8 152 22 210 29 109
15 177 30 445 98 88 22 178 44 200 48 22 5 56 13 75 18 19 6 53 16 75 22 77
22 400 132 440 150 22 10 78 32 125 50 47 18 90 36 95 40 6 4 48 22 95 40 133
50 501 230 618 302 37 23 96 57 132 76 76 41 461 295 516 341 6 4 35 26 65 47
30 21 95 70 144 109 50 39 98 76 107 81 9 5 49 38 89 74 94 85 104 94 169 148
134 112 642 643 715 747 11 15 38 51 61 79 22 28 74 96 115 151 40 55 78 104
82 110 19 22 244 359 270 403 15 26 66 112 113 190 47 79 134 246 195 370 118
242 118 243 144 312 9 25 23 59 30 75 47 104 119 287 151 385 20 63 43 129 49
145 15 35 57 179 74 250 7 28 16 66 21 85 5 19 19 73 30 120 11 47 27 108 35
135 19 68 54 244 65 324 5 36 20 143 35 236 25 162 34 251 55 515 11 150 11
645 -1 830 -26 420 -71 717 -175 1171 -52 227 -150 563 -199 679 -12 30 -33
84 -45 120 -13 36 -33 89 -46 119 -13 29 -24 58 -24 63 0 5 -11 34 -25 64 -14
30 -25 57 -25 59 0 5 -31 74 -96 214 -52 111 -123 250 -151 296 -14 22 -60
103 -104 180 -44 77 -105 181 -137 231 -31 50 -83 133 -115 184 -33 51 -63 98
-68 104 -49 60 -169 221 -169 227 0 8 -105 141 -161 204 -15 17 -56 65 -93
109 -141 167 -357 394 -491 515 -38 35 -86 78 -105 96 -79 72 -200 175 -275
233 -44 35 -114 90 -155 123 -41 33 -113 85 -160 117 -47 32 -134 92 -195 133
-60 41 -177 115 -260 163 -82 49 -166 99 -185 111 -19 12 -102 57 -183 99 -81
42 -156 81 -165 86 -32 18 -207 97 -232 105 -14 4 -80 32 -148 62 -67 30 -173
71 -235 92 -61 21 -170 59 -242 84 -161 56 -273 90 -390 117 -49 12 -112 28
-140 37 -27 8 -72 18 -100 23 -27 4 -108 19 -180 34 -181 37 -360 65 -479 77
-55 5 -139 14 -186 19 -178 21 -375 29 -660 28 -162 -1 -315 -3 -340 -4z m335
-164 c-3 -5 -14 -10 -23 -10 -23 -1 -117 -33 -175 -60 -40 -19 -57 -21 -110
-16 -171 17 -283 25 -397 26 -69 1 -134 5 -145 10 -25 11 -41 8 180 26 377 31
681 42 670 24z m1195 -103 c161 -29 360 -90 448 -138 31 -18 77 -43 102 -56
25 -14 90 -55 145 -91 l100 -67 -155 -6 c-189 -7 -306 -31 -407 -81 -19 -9
-46 -1 -175 55 -84 36 -211 84 -283 108 -71 23 -141 47 -155 52 -14 5 -34 13
-45 18 -31 12 -196 55 -340 89 -71 17 -145 35 -163 41 -18 6 -65 16 -105 23
-65 12 -70 14 -47 24 24 10 226 48 300 56 19 2 170 3 335 1 269 -3 315 -6 445
-28z m-1696 -128 c3 -3 -37 -50 -89 -105 -173 -179 -246 -341 -285 -629 -16
-118 -14 -115 -52 -115 -18 0 -49 -5 -69 -10 -20 -6 -67 -15 -105 -20 -239
-33 -412 -65 -539 -99 -48 -13 -97 -25 -185 -44 -145 -31 -696 -199 -714 -218
-19 -18 -26 -8 -26 39 0 46 21 203 35 267 10 42 66 208 75 220 4 6 24 44 46
85 34 66 81 137 140 209 62 77 182 179 320 273 73 50 92 58 185 78 220 45 319
60 484 70 148 9 770 8 779 -1z m545 -68 c172 -32 491 -109 633 -151 100 -30
401 -139 516 -187 l33 -14 -46 -56 c-25 -31 -57 -75 -70 -98 -35 -58 -75 -174
-75 -213 l0 -34 -82 6 c-46 4 -117 9 -158 12 -387 32 -949 31 -1266 0 -87 -9
-177 -16 -201 -16 l-43 0 0 65 c0 85 13 136 72 281 36 88 65 141 103 189 51
64 136 147 174 169 10 6 42 28 72 48 66 46 85 46 338 -1z m2096 -36 c33 -15
150 -57 235 -85 139 -45 280 -107 585 -255 101 -49 294 -151 304 -161 3 -2 0
-9 -5 -14 -7 -7 -33 2 -80 27 -65 36 -81 44 -159 79 -16 7 -65 29 -109 49 -71
32 -278 106 -351 126 -16 4 -55 15 -85 24 -110 32 -161 45 -180 45 -11 0 -32
12 -48 28 -67 64 -109 99 -144 121 -67 40 -43 51 37 16z m-4425 -98 c0 -2 -28
-33 -62 -69 -129 -134 -163 -186 -247 -369 -84 -186 -110 -301 -129 -568 l-7
-104 -68 -22 c-37 -13 -73 -27 -80 -32 -7 -5 -34 -18 -62 -28 -27 -10 -87 -36
-132 -57 -46 -21 -85 -38 -88 -38 -11 0 -96 -40 -250 -117 -180 -91 -268 -138
-370 -200 -11 -6 -81 -48 -155 -93 -74 -45 -161 -100 -193 -122 -31 -23 -60
-38 -63 -35 -16 16 50 403 85 498 63 173 125 295 206 405 77 106 266 290 360
350 42 27 90 59 108 71 59 41 161 101 262 153 122 64 354 180 360 180 3 0 29
12 58 26 154 75 467 190 467 171z m4395 -201 l90 -14 69 -73 c82 -88 243 -294
310 -399 27 -41 57 -87 67 -102 22 -32 25 -52 5 -45 -7 3 -82 54 -167 114
-155 109 -248 170 -326 214 -23 13 -82 47 -130 75 -119 70 -361 194 -378 194
-19 0 -30 21 -16 30 7 4 38 8 69 9 31 1 58 4 61 6 10 10 261 3 346 -9z m555
-139 c159 -55 245 -91 370 -154 68 -35 128 -67 132 -71 7 -7 -51 -116 -122
-232 -5 -8 -30 -52 -55 -97 -26 -46 -50 -83 -53 -83 -4 0 -35 54 -70 120 -93
176 -347 550 -374 550 -5 0 -8 7 -8 15 0 15 -8 18 180 -48z m-1045 -56 c165
-82 293 -152 434 -236 27 -16 131 -84 191 -125 30 -20 71 -45 90 -55 77 -39
151 -106 103 -92 -43 12 -213 60 -258 72 -49 13 -76 20 -350 84 -141 33 -413
78 -577 97 -41 4 -59 11 -63 23 -13 44 62 202 124 260 33 31 90 71 101 71 2 0
94 -45 205 -99z m1959 -193 c88 -57 179 -115 201 -131 22 -15 61 -42 88 -58
26 -17 47 -34 47 -38 0 -3 22 -21 48 -38 43 -28 221 -163 277 -210 115 -97
231 -198 233 -205 6 -13 -11 -9 -59 14 -24 11 -79 33 -122 49 -77 26 -82 30
-240 186 -89 88 -189 180 -222 204 -33 24 -92 70 -131 101 -39 31 -124 91
-188 133 -64 42 -114 81 -110 86 3 5 8 9 11 9 3 0 78 -46 167 -102z m-127
-149 c65 -45 135 -93 156 -106 20 -14 47 -35 60 -47 13 -12 35 -31 49 -42 14
-11 57 -48 95 -82 39 -35 79 -70 89 -78 18 -14 15 -15 -26 -10 -215 27 -348
37 -550 42 -214 5 -235 7 -232 22 2 9 10 24 17 32 12 14 42 68 108 190 67 125
89 160 102 160 8 0 67 -36 132 -81z m-2877 -9 c200 -9 374 -23 436 -35 16 -4
25 -17 34 -52 56 -211 125 -360 242 -520 21 -29 38 -58 38 -66 0 -8 -22 -19
-52 -26 -29 -8 -64 -19 -78 -26 -14 -7 -63 -27 -110 -45 -47 -17 -110 -42
-141 -56 -31 -13 -61 -24 -66 -24 -10 0 -200 -80 -318 -134 -180 -83 -264
-123 -295 -141 -96 -56 -349 -177 -358 -171 -10 6 -125 157 -222 291 -69 95
-229 390 -274 505 -24 63 -57 158 -71 210 -28 96 -56 242 -49 249 12 12 217
31 409 37 121 3 222 8 224 10 8 8 430 4 651 -6z m-1440 -84 c0 -27 14 -97 37
-191 8 -33 18 -76 23 -95 28 -120 169 -438 249 -560 9 -14 21 -33 26 -42 38
-63 194 -287 240 -342 30 -37 55 -69 55 -71 0 -2 -39 -25 -87 -51 -115 -62
-483 -282 -548 -328 -16 -12 -46 -29 -65 -39 -19 -10 -39 -24 -45 -30 -9 -11
-90 -66 -195 -132 -25 -15 -103 -71 -175 -123 -71 -53 -148 -108 -170 -124
-22 -16 -61 -44 -87 -63 -26 -19 -53 -35 -60 -34 -25 1 -286 364 -440 612
-106 170 -256 471 -307 617 -85 242 -158 581 -133 615 4 6 41 21 82 34 41 14
80 28 85 31 6 4 37 13 70 20 33 7 65 17 71 22 23 17 331 101 599 163 39 9 79
20 90 25 11 4 79 18 150 30 72 12 153 26 180 31 119 22 283 46 318 48 33 1 37
-2 37 -23z m2160 15 c19 -5 76 -14 125 -21 157 -22 277 -44 425 -79 47 -11
137 -32 200 -46 63 -14 147 -35 185 -46 39 -10 97 -27 130 -36 33 -9 65 -20
70 -23 6 -4 34 -13 63 -21 28 -7 52 -16 52 -20 0 -10 -28 -19 -61 -19 -17 0
-49 -4 -72 -9 -23 -5 -69 -14 -102 -21 -86 -16 -356 -80 -380 -90 -11 -5 -51
-16 -90 -24 -38 -8 -130 -33 -204 -55 -74 -21 -141 -37 -148 -34 -21 8 -130
177 -183 283 -41 83 -100 236 -100 261 0 11 45 11 90 0z m-5450 -238 c0 -3
-11 -29 -24 -57 -49 -105 -62 -141 -116 -321 -28 -96 -43 -207 -49 -364 l-6
-175 -66 -45 c-36 -25 -84 -62 -106 -81 -22 -19 -93 -76 -159 -127 -65 -50
-137 -109 -159 -130 -22 -21 -101 -93 -176 -161 -76 -67 -149 -136 -164 -154
-15 -18 -81 -88 -146 -156 -66 -67 -119 -127 -119 -132 0 -6 -5 -10 -11 -10
-31 0 36 382 93 530 68 174 117 262 223 399 44 57 94 122 111 145 28 37 247
276 349 381 83 85 391 368 425 390 19 12 46 34 59 49 23 25 41 33 41 19z
m7775 -183 c72 -5 146 -11 165 -15 19 -3 62 -10 95 -16 56 -10 123 -26 205
-50 62 -19 178 -192 294 -439 14 -30 22 -56 18 -58 -5 -1 -51 25 -103 59 -273
180 -800 469 -929 509 -79 24 -70 32 30 25 52 -4 154 -10 225 -15z m-845 -19
c0 -13 -77 -149 -106 -188 -13 -17 -24 -34 -24 -36 0 -2 -23 -44 -52 -93 -28
-49 -73 -127 -98 -174 -46 -83 -173 -297 -184 -307 -7 -7 -206 119 -296 189
-153 118 -400 340 -400 359 0 6 54 25 140 49 19 5 82 23 140 39 58 16 139 36
180 44 41 8 161 33 265 55 166 34 279 53 390 66 17 1 33 4 38 5 4 0 7 -3 7 -8z
m-5485 -52 c7 -92 89 -421 138 -549 83 -219 187 -439 279 -592 29 -48 72 -120
96 -160 23 -40 68 -107 98 -148 30 -41 80 -111 112 -154 31 -44 88 -117 125
-163 37 -46 65 -88 62 -93 -3 -4 -40 -34 -83 -66 -42 -32 -131 -104 -197 -159
-66 -55 -136 -112 -155 -126 -19 -14 -87 -73 -151 -130 -64 -57 -152 -135
-195 -173 -44 -37 -178 -163 -298 -280 -120 -116 -222 -212 -226 -214 -9 -4
-300 372 -300 388 0 4 -25 40 -55 78 -30 39 -55 74 -55 78 0 4 -11 21 -23 38
-21 27 -91 145 -164 276 -14 25 -29 50 -33 55 -13 17 -127 246 -180 360 -72
155 -112 260 -150 395 -7 25 -21 70 -30 100 -32 98 -66 282 -84 458 l-4 43 81
52 c164 106 318 203 370 231 28 16 122 68 207 115 154 87 243 131 455 228 170
78 335 144 349 140 5 -2 10 -14 11 -28z m5656 -77 c6 -20 15 -41 19 -47 12
-15 70 -163 87 -220 8 -27 20 -63 28 -80 22 -51 101 -312 140 -465 20 -80 40
-156 45 -170 5 -14 12 -45 16 -69 6 -40 5 -43 -12 -37 -11 4 -50 16 -89 27
-69 18 -278 90 -365 125 -25 10 -116 53 -202 96 l-158 78 27 53 c37 73 169
301 215 371 21 32 38 62 38 66 0 10 93 170 131 226 16 23 33 54 39 68 12 34
25 27 41 -22z m1802 -219 c99 -67 177 -131 236 -192 51 -53 172 -208 209 -266
14 -22 28 -42 32 -45 17 -11 150 -231 197 -325 91 -181 192 -439 178 -453 -4
-4 -15 4 -24 18 -9 14 -43 54 -77 90 -33 36 -80 87 -105 114 -138 153 -442
425 -713 639 -34 26 -69 54 -78 62 -10 8 -18 28 -18 45 0 94 -81 311 -162 433
-21 32 -38 62 -38 67 0 15 274 -126 363 -187z m-1205 96 c75 -38 166 -87 202
-107 73 -43 158 -90 210 -118 19 -11 37 -22 40 -25 3 -4 23 -16 45 -28 51 -27
274 -169 343 -217 43 -31 52 -42 52 -68 0 -43 -23 -126 -51 -181 -23 -46 -122
-149 -138 -143 -4 2 -57 64 -116 138 -115 143 -173 211 -270 319 -33 36 -85
94 -115 129 -63 72 -292 300 -332 332 -28 22 -36 40 -18 40 6 0 72 -32 148
-71z m-286 -39 c151 -138 427 -423 527 -545 22 -27 79 -95 126 -150 46 -55 99
-120 117 -145 17 -25 38 -50 46 -56 63 -47 -155 -90 -408 -79 -194 8 -204 12
-217 78 -41 203 -217 802 -269 916 -22 49 -31 80 -19 70 2 -2 46 -42 97 -89z
m-1676 -153 c73 -72 154 -149 180 -170 164 -129 309 -234 378 -275 43 -26 81
-53 83 -59 3 -7 -6 -32 -20 -55 -13 -24 -68 -119 -122 -213 -54 -93 -111 -189
-126 -212 -16 -23 -29 -44 -29 -47 0 -3 -15 -29 -34 -59 -19 -29 -52 -86 -74
-127 -22 -41 -68 -123 -103 -181 -35 -58 -89 -151 -119 -207 -29 -56 -59 -102
-65 -102 -6 0 -45 22 -86 50 -40 27 -77 50 -82 50 -8 0 -179 109 -187 119 -3
4 -68 52 -145 106 -129 91 -401 305 -485 381 -19 17 -62 55 -95 84 -170 149
-431 422 -421 439 11 17 673 340 781 380 33 12 87 35 120 50 103 48 466 178
500 180 13 0 66 -45 151 -132z m3087 -514 c40 -32 74 -60 77 -63 3 -3 39 -34
80 -70 129 -112 143 -124 195 -170 118 -104 404 -404 463 -485 16 -22 37 -47
46 -55 10 -8 43 -47 73 -87 l55 -73 0 -74 c-1 -151 -59 -362 -124 -451 -99
-134 -177 -216 -259 -273 -36 -24 -49 -29 -56 -19 -6 6 -56 107 -112 222 -133
272 -170 344 -191 375 -10 14 -31 53 -49 87 -17 34 -55 101 -84 150 -29 48
-56 95 -60 103 -14 27 -32 55 -68 105 -20 28 -51 77 -69 110 -19 33 -40 66
-47 75 -6 8 -27 36 -45 62 -18 26 -59 84 -90 128 l-57 80 83 83 c87 88 122
147 147 245 7 28 14 52 16 52 2 0 36 -26 76 -57z m-8998 0 c13 -93 48 -257 85
-388 6 -22 15 -56 19 -75 14 -58 77 -238 112 -317 11 -23 19 -44 19 -47 0 -8
77 -176 102 -223 162 -302 210 -384 336 -574 28 -43 52 -82 52 -85 0 -3 14
-23 30 -44 17 -21 30 -41 30 -45 0 -8 58 -84 76 -100 6 -5 45 -57 87 -115 42
-58 95 -129 118 -158 l42 -53 -50 -52 c-27 -29 -65 -70 -84 -92 -19 -21 -71
-78 -115 -125 -45 -47 -106 -114 -135 -149 -53 -63 -85 -100 -204 -240 -74
-87 -289 -360 -396 -504 -44 -59 -83 -107 -88 -107 -5 0 -26 23 -48 52 -66 89
-116 155 -164 215 -60 76 -102 136 -224 319 -123 185 -109 161 -201 329 -42
77 -85 151 -94 165 -17 25 -217 459 -237 515 -6 17 -26 75 -43 130 -18 55 -36
109 -41 120 -16 35 -57 215 -79 345 -11 69 -25 149 -30 179 -17 95 -14 109 37
170 200 236 505 543 718 721 77 64 147 123 155 131 8 8 40 32 70 55 30 22 71
52 90 67 19 14 38 26 42 27 4 0 10 -21 13 -47z m4243 -94 c78 -86 370 -378
442 -441 233 -204 263 -229 454 -371 28 -21 62 -49 76 -61 14 -13 59 -46 100
-73 114 -76 221 -147 239 -159 9 -6 62 -40 119 -74 56 -35 102 -66 102 -69 0
-14 -153 -287 -219 -391 -26 -40 -151 -261 -151 -266 0 -2 -13 -22 -29 -46
-24 -36 -70 -114 -161 -273 -9 -16 -42 -73 -72 -125 -30 -52 -83 -146 -117
-207 -35 -62 -65 -113 -67 -113 -2 0 -44 26 -94 58 -49 31 -128 80 -176 107
-47 28 -94 58 -104 67 -10 10 -57 43 -104 73 -47 30 -107 71 -132 90 -25 19
-50 35 -55 35 -4 0 -35 20 -66 45 -32 25 -117 89 -189 143 -127 94 -324 249
-334 262 -3 4 -24 20 -47 37 -23 17 -82 67 -130 111 -49 44 -110 99 -138 123
-128 109 -615 614 -615 636 1 17 590 430 776 543 31 19 99 63 151 98 52 34 96
62 99 62 3 0 28 15 57 33 29 18 66 39 82 47 17 8 44 25 61 37 17 13 33 23 36
23 3 0 37 18 74 40 38 22 75 40 82 40 7 0 30 -18 50 -41z m2513 -7 c24 -15 89
-47 144 -71 55 -24 134 -59 175 -78 88 -42 215 -87 320 -115 41 -10 91 -24
110 -29 19 -5 57 -14 84 -19 60 -12 76 -25 76 -59 0 -14 7 -58 15 -96 18 -79
37 -197 55 -330 6 -49 18 -133 25 -185 17 -114 32 -263 45 -465 6 -82 15 -210
21 -284 5 -74 6 -138 1 -143 -5 -5 -21 -4 -38 1 -16 5 -128 35 -249 66 -206
53 -402 111 -470 140 -62 27 -164 65 -173 65 -9 0 -88 33 -157 65 -16 7 -50
22 -75 33 -25 10 -80 36 -123 56 -43 20 -83 36 -88 36 -6 0 -72 32 -147 71
-75 40 -170 89 -211 110 -41 21 -79 43 -84 48 -5 5 14 47 47 102 30 52 84 147
120 212 37 66 81 142 100 170 50 78 93 151 138 235 23 43 54 96 70 119 15 23
28 44 28 47 0 5 58 104 90 156 5 8 17 31 27 50 35 70 65 120 72 120 4 0 27
-13 52 -28z m1826 -369 c132 -180 353 -520 353 -542 0 -5 14 -28 32 -52 37
-51 147 -249 209 -376 23 -49 52 -104 64 -123 12 -19 53 -105 92 -192 l71
-156 -42 -16 c-23 -9 -45 -16 -49 -16 -4 0 -26 -9 -50 -19 -80 -36 -216 -62
-442 -85 -138 -14 -568 -5 -650 14 -22 5 -71 12 -108 16 -38 4 -70 12 -72 18
-2 6 -6 90 -9 186 -8 244 -15 369 -26 410 -5 19 -14 98 -20 175 -14 184 -26
274 -62 485 -46 260 -46 265 -41 270 2 3 93 5 201 6 229 1 323 12 447 52 48
16 51 15 102 -55z m-9862 -90 c-11 -63 -17 -150 -16 -244 l1 -145 -39 -51
c-179 -238 -452 -668 -548 -860 -25 -51 -48 -93 -50 -93 -11 0 11 92 71 290
15 49 90 240 106 268 5 9 35 73 65 142 86 189 254 520 329 644 22 37 52 88 66
112 13 24 26 42 28 39 2 -2 -4 -48 -13 -102z m11468 -263 c109 -209 203 -396
231 -460 28 -64 66 -161 66 -169 0 -8 -37 46 -65 94 -15 28 -65 106 -110 175
-45 69 -89 137 -98 152 -9 15 -26 36 -37 46 -24 23 -40 72 -40 127 -1 22 -7
69 -14 104 -18 82 -6 70 67 -69z m-7438 -375 c276 -306 609 -614 984 -912 91
-73 189 -151 216 -174 147 -119 760 -528 898 -598 32 -17 33 -20 8 -63 -94
-167 -159 -280 -181 -313 -15 -22 -52 -85 -82 -140 -91 -164 -99 -179 -112
-195 -7 -8 -16 -22 -20 -30 -6 -15 -13 -27 -97 -166 -27 -45 -49 -86 -49 -92
0 -5 -15 -32 -33 -58 -18 -27 -86 -145 -151 -261 -65 -117 -120 -213 -123
-213 -10 0 -313 187 -456 282 -49 32 -93 58 -98 58 -5 0 -9 4 -9 8 0 5 -19 19
-41 33 -23 13 -57 33 -75 44 -18 11 -71 47 -116 81 -46 33 -151 109 -234 168
-83 59 -174 126 -202 149 -27 23 -96 78 -153 122 -142 111 -365 299 -483 408
-55 51 -129 119 -165 152 -99 92 -375 371 -449 455 -37 41 -95 105 -129 142
-35 36 -63 72 -63 80 0 23 614 601 740 698 25 19 84 68 131 110 105 92 171
146 224 184 67 48 179 140 188 154 5 7 12 12 16 10 4 -2 56 -57 116 -123z
m-4021 -37 c3 -13 7 -43 9 -68 4 -43 91 -393 123 -495 20 -60 81 -220 94 -243
5 -9 21 -48 36 -87 29 -76 61 -143 149 -310 129 -247 134 -256 239 -417 31
-48 56 -90 56 -93 0 -6 81 -127 130 -195 22 -30 60 -84 85 -120 24 -36 93
-125 152 -199 158 -196 153 -157 48 -311 -189 -276 -346 -536 -482 -798 -30
-59 -67 -129 -82 -157 -15 -27 -40 -80 -55 -117 -16 -38 -32 -68 -36 -68 -4 0
-27 28 -51 63 -43 62 -139 186 -169 219 -15 16 -47 63 -238 350 -40 59 -106
167 -148 240 -42 73 -79 138 -84 143 -21 26 -172 340 -226 470 -92 225 -189
568 -220 780 -27 187 -28 215 -11 249 9 17 28 63 43 101 29 77 185 393 256
520 54 96 109 185 196 320 89 139 108 166 137 199 14 16 25 33 25 38 0 18 20
7 24 -14z m11477 -76 c108 -169 218 -362 285 -502 25 -52 61 -126 81 -165 44
-88 111 -254 148 -365 27 -83 27 -90 22 -250 -5 -180 -21 -259 -79 -400 -90
-219 -185 -353 -363 -507 -83 -72 -185 -138 -195 -126 -4 4 -12 35 -19 68 -7
33 -16 78 -21 100 -5 22 -14 67 -20 100 -20 100 -71 315 -90 374 -10 31 -34
112 -55 181 -40 134 -79 257 -124 385 -15 44 -36 105 -46 135 -10 30 -40 109
-68 174 l-50 120 24 18 c13 10 47 36 75 56 181 131 281 262 384 507 13 29 40
143 40 166 0 33 14 20 71 -69z m-4223 -143 c100 -55 143 -77 331 -169 101 -50
188 -90 193 -90 5 0 43 -16 84 -35 41 -19 76 -35 79 -35 2 0 33 -14 70 -31 71
-32 251 -99 350 -129 33 -10 96 -30 140 -45 91 -30 130 -41 345 -96 85 -22
178 -43 205 -47 l50 -7 0 -290 c0 -476 -14 -747 -65 -1250 -6 -55 -10 -115
-10 -134 l0 -34 -42 6 c-24 3 -86 16 -138 28 -52 11 -133 29 -180 39 -47 10
-121 28 -165 40 -44 12 -91 24 -105 27 -14 3 -29 9 -35 13 -5 4 -39 16 -75 25
-36 9 -74 21 -85 25 -55 22 -109 41 -143 49 -20 5 -82 25 -137 45 -55 21 -138
50 -185 65 -103 35 -270 103 -403 165 -54 25 -102 46 -108 46 -5 0 -92 40
-192 89 -100 49 -222 107 -271 131 -48 23 -120 60 -160 83 -39 23 -106 59
-148 80 -58 28 -78 43 -78 58 0 10 5 19 10 19 6 0 10 4 10 9 0 5 22 47 49 93
27 46 82 142 124 213 67 117 120 205 169 283 10 15 27 47 39 72 12 25 40 74
62 110 22 36 51 85 65 110 14 25 35 61 47 80 12 19 44 76 70 125 27 50 65 115
84 145 20 31 47 77 61 103 14 26 26 47 28 47 2 0 29 -14 60 -31z m3489 -621
c9 -13 54 -124 111 -273 40 -107 93 -265 135 -405 20 -63 45 -146 57 -185 23
-71 74 -263 92 -345 5 -25 14 -61 18 -80 12 -56 39 -189 54 -272 10 -57 11
-80 2 -87 -14 -12 -224 -101 -237 -101 -6 0 -43 -9 -82 -20 -154 -42 -298 -70
-412 -81 -66 -6 -136 -12 -155 -14 -270 -27 -690 -10 -1037 42 -131 20 -120 0
-97 178 20 162 32 298 44 495 5 91 14 233 20 315 5 83 10 282 10 444 l0 294
63 -7 c334 -40 456 -46 646 -36 215 12 336 26 436 49 85 21 258 76 284 91 22
13 37 12 48 -2z m-8219 -315 c88 -105 249 -278 372 -401 122 -122 385 -371
435 -413 16 -13 52 -44 80 -69 99 -90 191 -168 266 -226 42 -32 114 -91 160
-129 46 -39 104 -84 129 -100 48 -32 135 -97 240 -180 36 -28 79 -60 97 -71
26 -16 513 -339 593 -394 50 -34 206 -128 247 -149 23 -11 44 -25 48 -31 3 -5
-50 -103 -118 -217 -68 -115 -137 -233 -152 -263 -15 -30 -37 -68 -49 -85 -11
-16 -26 -39 -32 -50 -6 -11 -36 -63 -67 -117 -30 -53 -77 -136 -102 -184 -26
-49 -57 -102 -70 -119 -13 -16 -45 -70 -71 -120 -26 -49 -64 -117 -84 -150
-19 -33 -44 -76 -54 -96 -41 -78 -35 -77 -128 -17 -46 30 -105 67 -133 83 -27
17 -57 34 -66 40 -9 5 -36 21 -60 34 -24 13 -102 63 -174 111 -71 48 -164 109
-205 135 -41 27 -116 79 -167 117 -51 37 -95 68 -99 68 -5 0 -193 137 -269
197 -16 13 -64 49 -105 81 -104 79 -218 171 -260 209 -19 17 -55 46 -80 64
-43 31 -155 128 -265 230 -27 26 -72 65 -100 88 -119 96 -700 684 -772 781
-22 30 -50 64 -62 74 -11 11 -21 25 -21 33 0 13 61 105 86 130 7 7 71 90 143
185 73 95 165 214 206 263 42 50 101 121 133 160 31 38 89 103 128 145 38 41
80 89 93 105 33 44 261 285 270 285 4 0 21 -17 39 -37z m-3318 -465 c7 -40 23
-107 35 -148 12 -41 37 -121 54 -178 42 -141 163 -447 221 -562 150 -298 208
-399 396 -685 133 -203 333 -472 442 -596 34 -39 40 -72 19 -104 -20 -29 -147
-356 -191 -492 -28 -86 -127 -454 -137 -513 -11 -62 -25 -83 -39 -60 -5 8 -27
38 -50 65 -23 28 -86 113 -140 190 -54 77 -110 154 -123 170 -26 33 -167 262
-167 272 0 4 -6 14 -14 22 -33 37 -180 315 -247 467 -43 97 -121 316 -149 414
-7 25 -16 54 -21 65 -15 34 -46 167 -59 250 -6 44 -15 103 -20 130 -37 208 7
688 99 1085 21 92 73 280 77 280 1 0 8 -33 14 -72z m12968 -158 c29 -150 40
-222 47 -325 4 -49 13 -148 21 -220 24 -224 14 -752 -17 -875 -101 -401 -269
-669 -566 -899 -63 -49 -149 -111 -163 -119 -3 -1 -3 166 -1 370 2 229 -1 427
-8 513 -22 265 -42 470 -46 485 -2 8 -9 56 -15 105 -5 50 -13 106 -16 126 -5
37 -5 37 83 96 179 120 244 177 368 319 44 50 141 196 170 254 30 62 78 193
95 260 15 57 22 44 48 -90z m-5826 -4 c24 -13 115 -60 203 -106 88 -45 185
-95 215 -111 51 -26 98 -49 390 -187 58 -27 148 -66 200 -86 52 -21 142 -57
200 -81 58 -24 188 -71 289 -105 101 -34 191 -66 200 -70 20 -11 254 -82 341
-103 36 -9 97 -25 135 -37 39 -11 93 -24 120 -30 128 -23 329 -71 341 -81 8
-7 10 -20 4 -42 -5 -18 -11 -61 -14 -97 -3 -36 -10 -92 -16 -125 -19 -104 -31
-178 -40 -245 -5 -36 -14 -87 -19 -115 -6 -27 -15 -75 -21 -105 -5 -30 -18
-95 -29 -145 -11 -49 -28 -128 -37 -175 -34 -169 -154 -643 -166 -655 -3 -3
-27 0 -54 5 -27 6 -74 15 -104 20 -30 5 -80 16 -110 25 -30 8 -122 31 -205 51
-192 47 -225 55 -255 64 -14 4 -45 13 -70 20 -25 7 -70 21 -100 32 -30 11
-107 34 -170 53 -63 18 -128 38 -145 45 -42 17 -269 98 -335 120 -53 17 -205
76 -320 125 -30 12 -107 44 -170 71 -63 26 -119 51 -125 55 -5 4 -82 39 -170
79 -88 39 -187 85 -220 101 -33 17 -117 59 -187 95 -70 35 -129 64 -131 64 -3
0 -48 25 -102 55 -53 30 -98 55 -100 55 -2 0 -27 16 -56 35 -30 19 -59 35 -65
35 -6 0 -17 6 -24 14 -9 12 -7 21 8 43 31 45 132 217 222 378 46 83 101 175
122 206 20 30 51 84 69 120 18 35 60 109 94 164 34 55 75 125 92 155 16 30 47
83 67 117 20 34 36 64 36 68 0 4 10 21 23 38 12 18 31 48 41 67 55 101 87 150
97 150 4 0 28 -11 51 -24z m-4999 -780 c9 -13 40 -48 69 -78 29 -30 75 -80
103 -113 59 -70 454 -464 586 -586 52 -47 123 -113 159 -146 36 -34 84 -76
107 -95 24 -18 84 -68 135 -112 117 -99 114 -96 233 -190 267 -212 311 -246
320 -246 3 0 34 -21 67 -47 114 -90 389 -282 549 -383 21 -14 92 -58 156 -99
65 -41 134 -87 154 -103 20 -15 40 -28 44 -28 4 0 19 -8 33 -19 15 -10 59 -35
97 -55 39 -21 79 -44 90 -52 20 -15 20 -15 1 -47 -10 -18 -30 -52 -44 -77 -14
-25 -41 -70 -60 -100 -19 -30 -67 -111 -107 -180 -107 -187 -105 -184 -175
-304 -36 -61 -72 -125 -80 -141 -23 -47 -92 -167 -116 -200 -11 -16 -47 -78
-78 -137 -31 -59 -61 -110 -66 -113 -9 -5 -156 76 -170 94 -3 3 -25 17 -50 30
-74 39 -440 276 -580 376 -36 25 -119 83 -185 130 -113 79 -362 265 -390 293
-8 6 -17 12 -22 12 -4 0 -45 31 -90 68 -45 37 -146 120 -225 184 -79 64 -163
136 -188 159 -25 23 -97 87 -160 143 -209 184 -676 657 -795 806 -28 36 -59
71 -68 79 -10 7 -17 17 -17 21 0 8 34 82 120 265 39 83 93 183 197 365 93 163
95 167 185 305 46 72 96 150 110 175 15 25 36 55 47 67 12 12 21 25 21 28 0 9
54 75 61 75 4 0 14 -11 22 -24z m9915 -163 c19 -113 44 -366 63 -642 11 -158
6 -745 -7 -884 -6 -57 -7 -58 -52 -81 -122 -62 -324 -134 -437 -156 -33 -6
-85 -19 -115 -28 -62 -18 -57 -17 -165 -32 -44 -6 -109 -15 -145 -20 -129 -19
-171 -21 -537 -26 -375 -5 -437 -2 -753 37 -41 5 -111 14 -155 19 -113 12
-145 20 -145 36 0 8 15 74 34 146 34 137 59 243 96 408 12 52 25 113 30 135 5
22 14 67 20 100 7 33 18 86 26 118 8 31 19 81 24 110 19 111 39 235 50 312 7
44 21 126 31 183 10 57 19 118 19 137 0 19 5 37 10 40 11 7 332 -27 435 -46
73 -14 577 -19 730 -9 99 7 278 34 497 75 99 18 258 67 339 105 92 42 94 41
107 -37z m-5896 -691 c2 -5 66 -41 143 -82 77 -40 145 -76 150 -80 28 -20 601
-301 670 -328 28 -11 94 -41 148 -66 122 -57 173 -78 382 -156 61 -23 137 -52
170 -65 173 -70 610 -216 730 -245 50 -11 99 -25 110 -30 11 -5 34 -11 50 -15
45 -9 92 -21 170 -43 72 -21 302 -76 390 -94 104 -21 110 -23 109 -44 -2 -43
-94 -357 -139 -474 -13 -36 -43 -117 -65 -180 -123 -343 -254 -677 -305 -777
-19 -38 -35 -73 -35 -79 0 -6 -7 -17 -15 -24 -21 -17 -109 0 -535 105 -83 20
-271 70 -395 105 -60 17 -123 35 -140 39 -16 5 -124 41 -240 81 -115 40 -228
78 -250 85 -22 6 -51 16 -65 22 -65 28 -143 58 -235 90 -99 34 -226 86 -348
142 -87 40 -183 81 -190 81 -3 0 -70 31 -149 69 -79 38 -183 88 -233 111 -297
140 -734 374 -751 402 -3 5 12 39 33 76 21 37 40 72 42 77 2 6 14 24 26 40 13
17 42 66 65 110 24 44 80 142 124 218 45 76 94 161 110 190 16 29 74 129 130
222 55 94 106 179 112 190 19 35 96 169 115 200 10 17 31 54 46 83 25 47 55
68 65 44z m-6272 -347 c1 -31 166 -381 209 -445 10 -14 23 -40 31 -58 7 -18
26 -51 41 -72 16 -22 29 -43 29 -46 0 -4 48 -78 108 -166 59 -87 116 -173 126
-191 11 -18 43 -61 71 -97 28 -36 67 -85 85 -110 19 -25 70 -90 114 -144 l79
-99 -6 -76 c-3 -42 -11 -128 -18 -191 -11 -109 -6 -422 8 -512 6 -39 -11 -54
-21 -20 -4 10 -40 65 -82 123 -194 268 -342 532 -437 774 -111 283 -234 679
-268 860 -5 28 -13 68 -18 90 -5 22 -18 87 -30 145 -11 58 -28 139 -36 180
-19 96 -19 109 0 84 8 -10 15 -24 15 -29z m13080 -27 c-1 -7 -5 -31 -9 -53
-25 -118 -74 -356 -82 -395 -8 -43 -18 -84 -40 -160 -6 -19 -18 -69 -29 -110
-21 -85 -43 -160 -70 -240 -58 -169 -111 -313 -123 -337 -8 -16 -18 -42 -21
-59 -4 -18 -19 -51 -35 -75 -15 -24 -30 -52 -34 -62 -13 -34 -137 -213 -189
-273 -64 -73 -233 -226 -308 -279 -30 -21 -58 -43 -62 -49 -4 -6 -10 -7 -14
-3 -7 7 19 102 38 137 16 30 64 208 109 400 11 47 24 99 29 116 6 17 10 41 10
53 0 12 4 30 9 39 5 9 19 78 31 152 12 74 25 158 30 185 13 70 29 194 40 295
8 76 12 87 37 107 15 13 32 23 36 23 12 0 250 160 273 184 11 11 46 43 78 70
67 58 187 198 242 284 38 60 54 75 54 50z m-11650 -208 c0 -6 12 -20 26 -33
15 -12 74 -75 131 -140 104 -118 467 -484 535 -542 20 -16 76 -68 125 -115 86
-83 108 -102 209 -185 27 -22 79 -67 117 -100 37 -33 103 -87 146 -120 43 -33
138 -108 212 -166 74 -59 188 -146 254 -194 66 -48 138 -101 160 -119 22 -17
94 -67 160 -110 66 -44 129 -87 140 -97 11 -10 68 -48 127 -86 59 -37 134 -86
168 -108 34 -22 81 -52 103 -67 23 -14 98 -59 167 -99 69 -39 127 -74 130 -76
2 -2 -2 -14 -10 -26 -7 -12 -40 -71 -73 -132 -79 -146 -77 -142 -118 -205 -31
-49 -78 -130 -151 -260 -14 -25 -63 -108 -108 -185 -45 -77 -86 -150 -91 -163
-13 -34 -34 -37 -71 -9 -18 14 -44 31 -58 37 -14 6 -44 23 -67 38 -23 15 -75
47 -115 71 -40 24 -107 68 -148 96 -41 29 -100 67 -130 85 -30 18 -137 91
-238 164 -101 72 -196 140 -212 151 -16 11 -75 56 -132 99 -57 44 -130 100
-163 125 -33 25 -112 89 -175 141 -63 53 -140 115 -170 139 -30 23 -84 71
-120 104 -36 34 -99 91 -140 127 -95 82 -493 479 -587 585 -38 44 -98 109
-132 145 -36 38 -61 74 -61 87 0 21 3 38 41 223 48 228 147 564 216 725 14 33
32 76 40 95 8 19 18 44 23 55 4 11 11 28 14 38 6 18 26 24 26 7z m10770 -517
c0 -17 -30 -222 -40 -278 -6 -33 -15 -82 -20 -110 -23 -141 -42 -244 -50 -275
-5 -19 -14 -60 -21 -90 -7 -30 -20 -80 -29 -110 -10 -30 -23 -82 -30 -114 -12
-56 -73 -244 -139 -425 -17 -46 -31 -86 -31 -88 0 -6 -167 -83 -179 -83 -6 0
-30 -9 -54 -19 -23 -11 -71 -29 -107 -40 -36 -12 -74 -25 -85 -30 -35 -15
-187 -53 -295 -73 -454 -83 -895 -106 -1347 -68 -271 22 -361 31 -423 40 -36
5 -105 15 -155 22 -49 8 -90 18 -90 23 1 9 35 88 56 127 5 10 9 23 9 29 0 6 6
25 14 42 59 132 96 219 109 258 9 25 31 86 50 135 77 201 126 333 151 409 14
44 48 149 76 233 27 83 50 160 50 170 0 9 11 49 24 87 26 79 17 75 136 56 208
-33 271 -41 420 -51 91 -6 206 -15 257 -20 126 -14 275 -12 568 6 306 18 364
23 390 34 11 5 38 11 60 14 186 24 439 89 600 154 101 42 125 48 125 35z
m-6786 -553 c48 -27 92 -50 98 -50 6 0 19 -6 27 -14 14 -11 49 -31 201 -112
32 -17 432 -211 525 -254 39 -18 117 -55 175 -82 58 -27 114 -53 125 -58 11
-4 45 -19 75 -33 30 -14 78 -33 105 -42 28 -9 79 -29 115 -45 36 -16 103 -43
150 -61 47 -17 94 -35 105 -39 11 -5 45 -17 75 -28 30 -11 64 -23 75 -27 11
-4 56 -21 100 -37 237 -87 497 -168 780 -243 77 -20 158 -43 180 -50 61 -19
350 -82 483 -105 23 -4 45 -9 48 -12 8 -8 -180 -386 -258 -519 -37 -64 -68
-120 -68 -124 0 -15 -248 -417 -279 -452 -6 -7 -11 -14 -11 -17 0 -5 -54 -86
-90 -135 -24 -32 -26 -33 -80 -27 -94 11 -577 120 -690 156 -30 10 -73 22 -95
29 -22 6 -71 20 -110 31 -38 12 -111 32 -160 45 -50 13 -127 37 -170 54 -44
16 -102 36 -130 45 -77 23 -226 76 -260 91 -16 8 -57 24 -90 35 -33 12 -74 28
-90 35 -17 8 -67 27 -110 43 -84 31 -276 111 -455 189 -164 72 -194 85 -210
98 -8 6 -53 28 -100 49 -47 21 -112 51 -145 68 -304 154 -483 248 -551 289
-44 26 -92 53 -107 58 -34 13 -34 20 3 74 17 25 30 48 30 52 0 4 8 19 19 33
10 15 36 61 58 102 46 87 66 122 138 245 29 50 78 135 110 190 32 55 71 120
86 145 15 25 45 74 66 110 21 36 43 74 50 85 7 11 23 41 36 66 26 50 95 167
110 187 14 18 16 17 111 -38z m-4194 -494 c215 -226 535 -533 700 -672 19 -16
55 -47 80 -70 41 -37 162 -137 266 -220 21 -18 63 -52 92 -75 30 -24 66 -53
80 -64 236 -176 311 -231 400 -292 59 -39 141 -96 182 -126 101 -73 307 -206
336 -217 13 -5 24 -13 24 -17 0 -5 9 -13 20 -18 11 -6 66 -38 122 -72 57 -34
115 -67 131 -74 15 -7 27 -17 27 -24 0 -6 -32 -68 -71 -136 -39 -68 -85 -149
-102 -179 -58 -104 -64 -115 -88 -151 -14 -19 -38 -61 -54 -92 -17 -31 -33
-57 -37 -57 -36 0 -848 540 -919 611 -18 18 -50 43 -174 134 -37 28 -90 70
-119 95 -28 25 -76 66 -106 90 -30 24 -59 49 -65 55 -5 6 -56 50 -112 98 -135
115 -514 493 -639 637 l-101 115 -23 105 c-12 58 -28 141 -34 185 -11 83 -12
584 -1 613 5 13 14 8 43 -28 20 -24 84 -94 142 -154z m11120 -373 c-65 -120
-274 -454 -369 -588 -46 -66 -98 -140 -115 -165 -33 -49 -83 -115 -131 -170
-16 -20 -50 -60 -75 -90 -74 -91 -218 -235 -227 -227 -4 4 -3 14 2 22 158 223
341 550 434 773 15 37 45 109 66 160 36 87 42 96 85 118 78 42 168 101 263
174 51 38 96 69 100 70 5 0 -10 -35 -33 -77z m-601 -330 c-9 -10 -28 -47 -44
-83 -49 -114 -146 -302 -207 -403 -32 -54 -62 -106 -65 -115 -22 -59 -346
-516 -399 -564 -34 -29 -236 -117 -368 -159 -259 -82 -345 -100 -696 -143
-270 -34 -370 -39 -683 -33 -171 3 -346 11 -387 16 -41 6 -129 16 -195 21 -66
6 -154 15 -195 21 -41 5 -100 12 -130 15 -30 3 -58 9 -62 13 -4 3 0 18 10 33
9 14 39 59 65 99 27 41 66 99 86 129 21 30 50 78 65 105 14 28 32 59 39 70 6
11 32 51 56 90 24 38 71 122 104 185 34 63 80 151 104 195 24 44 77 149 118
234 73 150 75 153 102 147 16 -3 59 -11 96 -16 38 -5 72 -12 77 -15 12 -7 254
-34 409 -45 73 -6 184 -15 245 -20 196 -19 769 0 931 30 28 5 109 16 180 25
191 24 657 147 720 191 26 19 44 1 24 -23z m-7223 -192 c5 -5 38 -24 74 -43
36 -19 123 -66 194 -104 70 -38 176 -93 235 -122 58 -29 126 -64 151 -77 79
-42 232 -116 315 -151 44 -19 105 -48 135 -63 30 -16 91 -43 135 -61 148 -58
350 -141 368 -151 9 -5 43 -19 75 -30 31 -11 71 -27 87 -34 17 -7 57 -21 90
-31 33 -10 69 -23 80 -30 21 -12 226 -82 380 -128 50 -15 99 -31 110 -35 136
-54 585 -172 879 -232 93 -19 171 -39 173 -46 5 -13 -28 -62 -87 -128 -19 -22
-57 -67 -85 -100 -256 -304 -632 -666 -674 -650 -9 4 -41 10 -71 15 -75 11
-201 38 -285 60 -38 10 -113 28 -165 39 -52 12 -146 37 -210 57 -63 19 -151
45 -195 58 -44 13 -127 39 -185 57 -58 18 -107 33 -110 34 -35 9 -97 30 -105
36 -5 4 -65 25 -132 48 -67 22 -198 72 -290 110 -92 38 -179 72 -193 76 -14 4
-53 21 -88 37 -35 15 -89 39 -120 52 -125 51 -199 86 -477 227 -302 152 -463
236 -480 250 -6 4 -39 22 -73 39 -34 17 -62 34 -62 38 0 4 11 25 25 47 13 22
36 63 51 90 43 80 165 289 178 305 16 19 84 138 121 210 15 30 40 73 55 95 15
22 53 86 84 143 56 98 70 113 92 93z m-3108 -399 c157 -157 419 -397 487 -447
23 -16 70 -55 106 -86 92 -80 279 -229 288 -229 4 0 16 -8 27 -18 90 -82 588
-421 801 -544 153 -88 143 -71 88 -166 -26 -45 -51 -82 -55 -82 -28 0 -602
379 -650 430 -3 3 -32 25 -65 50 -337 252 -812 718 -1032 1010 -101 134 -162
230 -148 230 3 0 71 -66 153 -148z m2492 -765 c117 -72 461 -251 705 -368 94
-44 196 -94 228 -110 32 -16 64 -29 71 -29 6 0 72 -26 146 -59 74 -32 189 -79
255 -105 66 -26 152 -60 190 -76 83 -35 255 -98 305 -111 19 -6 94 -29 165
-53 72 -24 204 -65 295 -90 91 -26 174 -51 185 -56 11 -4 31 -10 45 -13 14 -2
62 -14 107 -26 45 -12 106 -26 135 -32 29 -5 71 -14 93 -18 22 -5 68 -14 103
-21 34 -7 62 -17 62 -24 0 -6 -23 -24 -51 -41 -28 -16 -73 -45 -100 -63 -27
-17 -53 -32 -58 -32 -5 0 -11 -4 -13 -9 -7 -19 -306 -170 -338 -171 -8 0 -24
-7 -34 -15 -11 -8 -26 -15 -33 -15 -7 0 -32 -9 -56 -19 -99 -45 -113 -46 -232
-22 -27 6 -75 15 -105 21 -65 12 -108 22 -210 49 -41 10 -129 33 -195 50 -208
55 -259 71 -455 141 -63 23 -124 44 -135 47 -47 13 -391 145 -510 196 -44 18
-105 44 -135 57 -30 13 -62 29 -70 35 -8 6 -35 19 -60 29 -55 21 -424 208
-687 347 -24 13 -43 26 -43 29 0 3 36 66 80 139 44 74 80 138 80 143 0 5 11
24 24 41 32 43 146 239 146 252 0 14 21 35 34 35 6 0 35 -15 66 -33z m6865
-108 c-8 -13 -232 -230 -295 -285 -130 -116 -350 -283 -510 -386 -123 -81
-199 -121 -295 -157 -33 -13 -76 -30 -95 -39 -49 -22 -222 -71 -310 -88 -41
-8 -91 -18 -110 -23 -19 -5 -66 -14 -105 -20 -38 -6 -109 -18 -158 -26 -115
-19 -562 -38 -746 -32 -231 8 -751 60 -751 76 0 7 141 137 171 159 15 10 110
112 381 406 10 11 30 38 45 60 15 23 30 43 33 46 20 18 158 190 162 200 4 13
98 4 403 -40 469 -67 1216 -62 1595 11 104 20 335 70 370 79 72 20 136 40 175
54 49 19 48 18 40 5z m-7297 -653 c155 -88 192 -108 467 -245 154 -76 300
-146 325 -154 49 -17 165 -67 220 -96 19 -10 53 -24 75 -30 22 -7 60 -21 85
-31 145 -61 475 -178 595 -211 39 -11 79 -24 90 -29 39 -18 171 -53 335 -89
20 -4 44 -13 55 -19 16 -9 8 -11 -49 -12 -38 0 -99 5 -135 10 -36 6 -97 15
-136 21 -169 25 -318 55 -445 89 -36 9 -90 23 -120 29 -69 16 -94 23 -205 61
-49 17 -164 56 -255 86 -180 60 -172 57 -280 104 -41 18 -102 42 -135 54 -33
11 -181 82 -330 157 -295 148 -335 170 -335 182 0 14 87 167 95 167 3 0 40
-20 83 -44z m3932 -495 c242 -33 304 -40 475 -53 194 -16 744 -14 905 3 63 6
123 10 134 8 10 -2 -42 -24 -115 -48 -74 -24 -147 -51 -163 -59 -37 -18 -234
-78 -341 -103 -44 -10 -111 -28 -150 -39 -38 -12 -90 -25 -115 -29 -25 -5 -79
-15 -120 -24 -105 -22 -282 -54 -367 -66 -122 -19 -612 -25 -753 -11 -69 7
-156 16 -195 19 l-70 7 85 43 c193 98 403 221 452 265 60 54 163 119 178 111
3 -2 75 -12 160 -24z"/>
</g>
</svg>
