<svg xmlns="http://www.w3.org/2000/svg" version="1.1" xmlns:xlink="http://www.w3.org/1999/xlink" xmlns:svgjs="http://svgjs.com/svgjs" width="512" height="512" x="0" y="0" viewBox="0 0 609.619 609.619" style="enable-background:new 0 0 512 512" xml:space="preserve" class=""><g><path d="M608.285 190.125a1.857 1.857 0 0 0-.107-.214L556.98 90.967a11.908 11.908 0 0 0-10.621-6.43H263.886a11.905 11.905 0 0 0-10.573 6.43l-51.198 98.944a12.053 12.053 0 0 0-1.441 5.691v31.302H11.907C5.331 226.904 0 232.235 0 238.811s5.331 11.907 11.907 11.907h188.72v18.527h-63.629c-6.576 0-11.907 5.331-11.907 11.907s5.331 11.907 11.907 11.907h63.629v220.118c0 6.576 5.331 11.907 11.907 11.907h385.179c6.576 0 11.907-5.331 11.907-11.907V195.602a11.916 11.916 0 0 0-1.335-5.477zm-30.147-6.43H455.821l-9.763-75.345h93.05zm-200.484 23.814h55.747v80.072h-55.747zm1.643-23.814 9.752-75.345h33.005l9.752 75.345zm-108.16-75.345h93.907l-9.763 75.345H232.108zm314.668 392.919H224.44V293.058h37.637c6.576 0 11.907-5.331 11.907-11.907s-5.331-11.907-11.907-11.907H224.44v-18.527h37.637c6.576 0 11.907-5.331 11.907-11.907s-5.331-11.907-11.907-11.907H224.44v-19.396h129.401v91.979c0 6.576 5.331 11.907 11.907 11.907h79.56c6.576 0 11.907-5.331 11.907-11.907v-91.979h128.591v293.762z" fill="#ffffff" data-original="#000000" class="" opacity="1"></path><path d="M405.123 370.046H272.066c-6.576-.008-11.913 5.316-11.921 11.892s5.316 11.913 11.892 11.921h133.085c6.576 0 11.907-5.331 11.907-11.907s-5.331-11.906-11.906-11.906zM405.123 412.398H272.066c-6.576 0-11.907 5.331-11.907 11.907s5.331 11.907 11.907 11.907h133.056c6.576 0 11.907-5.331 11.907-11.907 0-6.577-5.331-11.907-11.906-11.907zM405.123 454.749h-57.021c-6.576 0-11.907 5.331-11.907 11.907s5.331 11.907 11.907 11.907h57.021c6.576 0 11.907-5.331 11.907-11.907-.001-6.576-5.332-11.907-11.907-11.907zM484.599 476.896h53.58c6.576 0 11.907-5.331 11.907-11.907v-53.687c0-6.576-5.331-11.907-11.907-11.907h-53.58c-6.576 0-11.907 5.331-11.907 11.907v53.687c.001 6.576 5.331 11.907 11.907 11.907zm11.907-53.687h29.767v29.874h-29.767zM176.813 370.046H11.907c-6.576.008-11.9 5.345-11.892 11.921.008 6.564 5.328 11.884 11.892 11.892h164.907c6.576 0 11.907-5.331 11.907-11.907s-5.332-11.906-11.908-11.906zM176.813 412.398H94.36c-6.576 0-11.907 5.331-11.907 11.907s5.331 11.907 11.907 11.907h82.453c6.576 0 11.907-5.331 11.907-11.907 0-6.577-5.331-11.907-11.907-11.907z" fill="#ffffff" data-original="#000000" class="" opacity="1"></path></g></svg>